# xmcd CD database file
#
# Track frame offsets:
#	183
#	20570
#	48733
#	76495
#	105070
#	129208
#	148483
#	173803
#	199158
#	224645
#
# Disc length: 3363 seconds
#
# Revision: 0
# Processed by: cddbd v1.4PL0 Copyright (c) Steve Scherf et al.
# Submitted via: CDex 1.50
#
DISCID=900d210a
DTITLE=Hot Line - ...Still Calling
DYEAR=1993
DGENRE=Jazz
TTITLE0=Hidden Shadows
TTITLE1=Hic Sunt Leones
TTITLE2=Why Not
TTITLE3=Hair In The Wind
TTITLE4=Childhood Dream
TTITLE5=T.M.
TTITLE6=Night Life
TTITLE7=Gymnopedie
TTITLE8=Holidays
TTITLE9=Face To Face
EXTD=YEAR: 1993
EXTT0=
EXTT1=
EXTT2=
EXTT3=
EXTT4=
EXTT5=
EXTT6=
EXTT7=
EXTT8=
EXTT9=
PLAYORDER=
